# File created by Blade
# Date/Time:  Thu Jan 22 19:13:21 2015
#---------------------------------------------------------
:version 1.10
:name HOM
:units
  mass 1.0
  length 1.000000
  angle deg
:documentation
     Acclaim Skeleton File
:root
   axis xyz
   order TX TY TZ RX RY RZ
   position 0.000000 0.000000 0.000000
   orientation 0 0 0
:bonedata
   begin
      id 1
      name RightUpLeg_dum
      direction -1.000000 0.000000 0.000000
      length 4.478084
      axis 0.0 0.0 0.0 xyz
   end
   begin
      id 2
      name LeftUpLeg_dum
      direction 1.000000 0.000000 0.000000
      length 4.478084
      axis 0.0 0.0 0.0 xyz
   end
   begin
      id 3
      name Spine_dum
      direction 0.000000 1.000000 0.000000
      length 6.068208
      axis 0.0 0.0 0.0 xyz
   end
   begin
      id 4
      name RightUpLeg
      direction 0.000000 -1.000000 0.000000
      length 16.405774
      axis 0.0 0.0 0.0 xyz
      dof rx ry rz
   end
   begin
      id 5
      name RightLeg
      direction 0.000000 -1.000000 0.000000
      length 14.644143
      axis 0.0 0.0 0.0 xyz
      dof rx ry rz
   end
   begin
      id 6
      name RightFoot
      direction 0.000000 -0.258819 0.965926
      length 5.806150
      axis 15.0 0.0 0.0 xyz
      dof rx ry rz
   end
   begin
      id 7
      name RightToeBase
      direction 0.000000 0.000000 1.000000
      length 2.952750
      axis 0.0 0.0 0.0 xyz
      dof rx ry rz
   end
   begin
      id 8
      name LeftUpLeg
      direction 0.000000 -1.000000 0.000000
      length 16.405774
      axis 0.0 0.0 0.0 xyz
      dof rx ry rz
   end
   begin
      id 9
      name LeftLeg
      direction 0.000000 -1.000000 0.000000
      length 14.644143
      axis 0.0 0.0 0.0 xyz
      dof rx ry rz
   end
   begin
      id 10
      name LeftFoot
      direction 0.000000 -0.258819 0.965926
      length 5.806150
      axis 15.0 0.0 0.0 xyz
      dof rx ry rz
   end
   begin
      id 11
      name LeftToeBase
      direction 0.000000 0.000000 1.000000
      length 2.952750
      axis 0.0 0.0 0.0 xyz
      dof rx ry rz
   end
   begin
      id 12
      name Spine
      direction 0.000000 1.000000 0.000000
      length 0.000000
      axis 0.0 0.0 0.0 xyz
      dof rx ry rz
   end
   begin
      id 13
      name Spine_dum1
      direction 0.000000 1.000000 0.000000
      length 10.013923
      axis 0.0 0.0 0.0 xyz
   end
   begin
      id 14
      name Spine_dum2
      direction 0.000000 1.000000 0.000000
      length 10.013923
      axis 0.0 0.0 0.0 xyz
   end
   begin
      id 15
      name Spine_dum3
      direction 0.000000 1.000000 0.000000
      length 15.777476
      axis 0.0 0.0 0.0 xyz
   end
   begin
      id 16
      name RightShoulder
      direction -1.000000 0.000000 0.000000
      length 7.190220
      axis 0.0 0.0 90.0 xyz
      dof rx ry rz
   end
   begin
      id 17
      name RightArm
      direction -1.000000 0.000000 0.000000
      length 10.177469
      axis 0.0 0.0 90.0 xyz
      dof rx ry rz
   end
   begin
      id 18
      name RightForeArm
      direction -1.000000 0.000000 0.000000
      length 8.392114
      axis 0.0 0.0 90.0 xyz
      dof ry rz rx
   end
   begin
      id 19
      name RightHand
      direction -1.000000 0.000000 0.000000
      length 0.000000
      axis 0.0 0.0 90.0 xyz
      dof rx ry rz
   end
   begin
      id 20
      name RightHand_dum1
      direction -1.000000 0.000000 0.000000
      length 3.937000
      axis 0.0 0.0 90.0 xyz
   end
   begin
      id 21
      name RightHand_dum2
      direction 0.000000 0.000000 0.000000
      length 0.000000
      axis 0.0 0.0 90.0 xyz
   end
   begin
      id 22
      name RightHandThumb1
      direction 0.000000 0.000000 1.000000
      length 3.937000
      axis 0.0 0.0 90.0 xyz
      dof rx rz ry
   end
   begin
      id 23
      name LeftShoulder
      direction 1.000000 0.000000 0.000000
      length 7.190220
      axis 0.0 0.0 -90.0 xyz
      dof rx ry rz
   end
   begin
      id 24
      name LeftArm
      direction 1.000000 0.000000 0.000000
      length 10.177469
      axis 0.0 0.0 -90.0 xyz
      dof rx ry rz
   end
   begin
      id 25
      name LeftForeArm
      direction 1.000000 0.000000 0.000000
      length 8.392114
      axis 0.0 0.0 -90.0 xyz
      dof ry rz rx
   end
   begin
      id 26
      name LeftHand
      direction 1.000000 0.000000 0.000000
      length 0.000000
      axis 0.0 0.0 -90.0 xyz
      dof rx ry rz
   end
   begin
      id 27
      name LeftHand_dum1
      direction 1.000000 0.000000 0.000000
      length 3.937000
      axis 0.0 0.0 -90.0 xyz
   end
   begin
      id 28
      name LeftHand_dum2
      direction 0.000000 0.000000 0.000000
      length 0.000000
      axis 0.0 0.0 -90.0 xyz
   end
   begin
      id 29
      name LeftHandThumb1
      direction 0.000000 0.000000 1.000000
      length 3.937000
      axis 0.0 0.0 -90.0 xyz
      dof rx rz ry
   end
   begin
      id 30
      name Head
      direction 0.000000 1.000000 0.000000
      length 4.527550
      axis 0.0 0.0 0.0 xyz
      dof rx ry rz
   end
:hierarchy
   begin
      root RightUpLeg_dum LeftUpLeg_dum Spine_dum
      RightUpLeg_dum RightUpLeg
      LeftUpLeg_dum LeftUpLeg
      Spine_dum Spine
      RightUpLeg RightLeg
      RightLeg RightFoot
      RightFoot RightToeBase
      LeftUpLeg LeftLeg
      LeftLeg LeftFoot
      LeftFoot LeftToeBase
      Spine Spine_dum1 Spine_dum2 Spine_dum3
      Spine_dum1 RightShoulder
      Spine_dum2 LeftShoulder
      Spine_dum3 Head
      RightShoulder RightArm
      RightArm RightForeArm
      RightForeArm RightHand
      RightHand RightHand_dum1 RightHand_dum2
      RightHand_dum2 RightHandThumb1
      LeftShoulder LeftArm
      LeftArm LeftForeArm
      LeftForeArm LeftHand
      LeftHand LeftHand_dum1 LeftHand_dum2
      LeftHand_dum2 LeftHandThumb1
   end

# File created by Blade
# Date/Time:  Thu Jan 22 19:13:14 2015
# Frame Rate: 120.000 fps
#------------------------------------------------------
:FULLY-SPECIFIED
:DEGREES
642
root 6.840989 30.622072 -3.667848 20.611992 -17.474262 26.855446
RightUpLeg -36.366554 -46.939112 -25.731723
RightLeg -7.612059 -0.000000 0.000000
RightFoot 7.082769 -7.983436 14.534229
RightToeBase 11.923778 -0.000000 -0.000000
LeftUpLeg -24.045264 7.639087 -11.439097
LeftLeg 5.443468 -0.000000 -0.000000
LeftFoot -6.967450 8.230529 -25.776912
LeftToeBase 8.576915 -0.000000 -0.000000
Spine 9.220975 14.948598 37.551815
RightShoulder -13.236657 -2.682322 -20.217829
RightArm 13.215466 50.178898 53.297887
RightForeArm 24.107176 -0.000000 14.748259
RightHand 14.152866 -0.000000 8.847973
RightHandThumb1 -24.326973 -0.000000 -32.862282
LeftShoulder -26.146413 5.162489 37.779691
LeftArm -1.627848 -33.070627 -15.377255
LeftForeArm -2.648901 -0.000000 2.410904
LeftHand -1.858336 0.000000 -1.957841
LeftHandThumb1 -26.253704 0.000000 33.147579
Head -23.262456 12.017077 11.075604
643
root 6.831137 30.624430 -3.664324 20.550586 -17.239028 26.765560
RightUpLeg -36.091763 -47.144462 -25.660562
RightLeg -7.723240 -0.000000 0.000000
RightFoot 7.148015 -7.911048 14.470053
RightToeBase 11.814310 -0.000000 -0.000000
LeftUpLeg -23.967814 7.658434 -11.330305
LeftLeg 5.467693 -0.000000 -0.000000
LeftFoot -6.879153 8.079078 -25.749939
LeftToeBase 8.542129 -0.000000 -0.000000
Spine 9.245489 14.935379 37.682782
RightShoulder -13.400697 -2.595191 -20.259226
RightArm 13.076189 50.203960 53.193773
RightForeArm 24.015230 -0.000000 14.740990
RightHand 14.178285 0.000000 8.810792
RightHandThumb1 -24.326973 -0.000000 -32.862282
LeftShoulder -26.211170 5.089173 37.698036
LeftArm -1.905450 -33.476768 -15.041420
LeftForeArm -3.098192 0.000000 2.501823
LeftHand -1.813100 0.000000 -1.631959
LeftHandThumb1 -26.253704 0.000000 33.147579
Head -23.670768 12.002362 10.865049
644
root 6.821275 30.626765 -3.658571 20.483895 -17.021174 26.661396
RightUpLeg -35.797077 -47.320994 -25.585867
RightLeg -7.870107 -0.000000 0.000000
RightFoot 7.234372 -7.844225 14.383977
RightToeBase 11.825747 -0.000000 -0.000000
LeftUpLeg -23.868191 7.684607 -11.203715
LeftLeg 5.468456 -0.000000 -0.000000
LeftFoot -6.785041 7.945143 -25.733188
LeftToeBase 8.523529 -0.000000 -0.000000
Spine 9.267020 14.918741 37.806970
RightShoulder -13.558962 -2.570126 -20.341489
RightArm 12.955050 50.133637 53.165083
RightForeArm 24.014754 -0.000000 14.769947
RightHand 14.218287 0.000000 8.612742
RightHandThumb1 -24.326973 -0.000000 -32.862282
LeftShoulder -26.274727 5.008677 37.568528
LeftArm -2.188631 -33.833400 -14.655117
LeftForeArm -3.490338 -0.000000 2.541218
LeftHand -1.727331 0.000000 -1.154817
LeftHandThumb1 -26.253704 0.000000 33.147579
Head -24.051802 11.935682 10.654777
645
root 6.811791 30.628764 -3.650940 20.401168 -16.815490 26.566349
RightUpLeg -35.484736 -47.480904 -25.543539
RightLeg -8.010985 -0.000000 0.000000
RightFoot 7.314941 -7.825815 14.322200
RightToeBase 11.647143 -0.000000 -0.000000
LeftUpLeg -23.748285 7.679872 -11.069370
LeftLeg 5.463227 -0.000000 -0.000000
LeftFoot -6.710959 7.838309 -25.778378
LeftToeBase 8.586568 -0.000000 -0.000000
Spine 9.294008 14.912550 37.868266
RightShoulder -13.723736 -2.598671 -20.325368
RightArm 13.029660 50.252811 53.248917
RightForeArm 23.823513 -0.000000 14.726723
RightHand 14.433326 -0.000000 8.274293
RightHandThumb1 -24.326973 -0.000000 -32.862282
LeftShoulder -26.329171 4.781827 37.580876
LeftArm -2.536014 -33.988599 -14.307242
LeftForeArm -3.944827 0.000000 2.567278
LeftHand -1.747641 -0.000000 -0.705411
LeftHandThumb1 -26.253704 0.000000 33.147579
Head -24.437135 11.861505 10.514877
646
root 6.804744 30.630150 -3.643475 20.325593 -16.653001 26.481321
RightUpLeg -35.210952 -47.591502 -25.520872
RightLeg -8.134598 -0.000000 0.000000
RightFoot 7.389792 -7.802519 14.187058
RightToeBase 11.653391 -0.000000 -0.000000
LeftUpLeg -23.635250 7.690949 -10.950551
LeftLeg 5.442508 -0.000000 -0.000000
LeftFoot -6.616338 7.726984 -25.905838
LeftToeBase 8.657574 -0.000000 -0.000000
Spine 9.289884 14.944527 37.873217
RightShoulder -13.835570 -2.658589 -20.361484
RightArm 12.951445 50.436455 53.342798
RightForeArm 23.680468 -0.000000 14.874396
RightHand 14.194095 -0.000000 8.167246
RightHandThumb1 -24.326973 -0.000000 -32.862282
LeftShoulder -26.311208 4.562673 37.609654
LeftArm -3.013946 -34.179121 -13.911815
LeftForeArm -4.195307 -0.000000 2.678817
LeftHand -1.953010 -0.000000 -0.419856
LeftHandThumb1 -26.253704 0.000000 33.147579
Head -24.753769 11.820489 10.309233
647
root 6.797347 30.631356 -3.632155 20.206990 -16.502242 26.390577
RightUpLeg -34.885776 -47.674203 -25.537899
RightLeg -8.242238 -0.000000 0.000000
RightFoot 7.454122 -7.789962 14.087414
RightToeBase 11.516743 -0.000000 -0.000000
LeftUpLeg -23.463949 7.670972 -10.799998
LeftLeg 5.414538 -0.000000 -0.000000
LeftFoot -6.562789 7.653166 -26.101523
LeftToeBase 8.786006 -0.000000 -0.000000
Spine 9.334481 14.929323 37.856184
RightShoulder -13.987098 -2.742864 -20.382897
RightArm 13.002235 50.349657 53.432468
RightForeArm 23.819885 -0.000000 14.811698
RightHand 14.396650 -0.000000 8.257896
RightHandThumb1 -24.326973 -0.000000 -32.862282
LeftShoulder -26.381194 4.496754 37.561756
LeftArm -3.340700 -34.497056 -13.605752
LeftForeArm -4.720183 -0.000000 2.661650
LeftHand -1.962194 0.000000 -0.041017
LeftHandThumb1 -26.253704 0.000000 33.147579
Head -25.055382 11.782038 10.116784
648
root 6.794405 30.631810 -3.621402 20.099643 -16.381074 26.326290
RightUpLeg -34.643743 -47.756390 -25.547530
RightLeg -8.307440 -0.000000 0.000000
RightFoot 7.507172 -7.808257 14.006998
RightToeBase 11.178622 -0.000000 -0.000000
LeftUpLeg -23.312948 7.620546 -10.675226
LeftLeg 5.398167 -0.000000 -0.000000
LeftFoot -6.536425 7.623266 -26.197547
LeftToeBase 8.849264 -0.000000 -0.000000
Spine 9.336474 14.952556 37.770981
RightShoulder -14.075847 -2.847329 -20.409306
RightArm 13.004495 50.525272 53.595985
RightForeArm 23.730128 -0.000000 14.895108
RightHand 14.451402 -0.000000 7.926167
RightHandThumb1 -24.326973 -0.000000 -32.862282
LeftShoulder -26.367657 4.370854 37.566021
LeftArm -3.757629 -34.771210 -13.268497
LeftForeArm -4.954137 -0.000000 2.629144
LeftHand -2.046825 -0.000000 0.241313
LeftHandThumb1 -26.253704 0.000000 33.147579
Head -25.321712 11.762714 9.898580
649
root 6.791911 30.631969 -3.612904 20.012065 -16.292622 26.259775
RightUpLeg -34.472093 -47.805872 -25.534575
RightLeg -8.326920 -0.000000 0.000000
RightFoot 7.524227 -7.805621 13.859785
RightToeBase 11.139237 -0.000000 -0.000000
LeftUpLeg -23.191519 7.587412 -10.561403
LeftLeg 5.391182 -0.000000 -0.000000
LeftFoot -6.530518 7.589441 -26.298027
LeftToeBase 8.933495 -0.000000 -0.000000
Spine 9.333466 14.983827 37.639505
RightShoulder -14.195070 -2.885729 -20.516614
RightArm 13.020786 50.639662 53.850063
RightForeArm 23.507887 -0.000000 14.922161
RightHand 14.433100 -0.000000 7.910528
RightHandThumb1 -24.326973 -0.000000 -32.862282
LeftShoulder -26.510219 4.549189 37.430206
LeftArm -3.820692 -35.177250 -13.185146
LeftForeArm -5.066070 -0.000000 2.538737
LeftHand -2.156703 -0.000000 0.865080
LeftHandThumb1 -26.253704 0.000000 33.147579
Head -25.567045 11.731119 9.682610
650
root 6.788362 30.633571 -3.602050 19.922953 -16.209226 26.175540
RightUpLeg -34.324415 -47.883271 -25.461669
RightLeg -8.352740 -0.000000 0.000000
RightFoot 7.565306 -7.762978 13.753371
RightToeBase 11.096149 -0.000000 -0.000000
LeftUpLeg -23.063096 7.560476 -10.430732
LeftLeg 5.394483 -0.000000 -0.000000
LeftFoot -6.545037 7.543633 -26.439072
LeftToeBase 9.053080 -0.000000 -0.000000
Spine 9.293609 14.999213 37.527131
RightShoulder -14.227848 -2.964073 -20.661377
RightArm 12.877581 50.619626 53.973936
RightForeArm 23.598138 -0.000000 14.992865
RightHand 14.572271 0.000000 7.657677
RightHandThumb1 -24.326973 -0.000000 -32.862282
LeftShoulder -26.564878 4.613835 37.376167
LeftArm -4.053181 -35.487774 -13.078365
LeftForeArm -5.135249 -0.000000 2.536868
LeftHand -2.373552 -0.000000 1.245059
LeftHandThumb1 -26.253704 0.000000 33.147579
Head -25.692237 11.622292 9.368464
651
root 6.786088 30.634553 -3.591954 19.857758 -16.151440 26.097001
RightUpLeg -34.262548 -47.965387 -25.351663
RightLeg -8.334794 -0.000000 0.000000
RightFoot 7.574011 -7.694060 13.611273
RightToeBase 11.127567 -0.000000 -0.000000
LeftUpLeg -22.970317 7.530041 -10.312461
LeftLeg 5.416816 -0.000000 -0.000000
LeftFoot -6.577757 7.526755 -26.516970
LeftToeBase 9.025456 -0.000000 -0.000000
Spine 9.218166 15.112841 37.342926
RightShoulder -14.326433 -3.179189 -20.698769
RightArm 12.970814 50.781226 54.223402
RightForeArm 23.513548 0.000000 15.017762
RightHand 14.657300 0.000000 7.657385
RightHandThumb1 -24.326973 -0.000000 -32.862282
LeftShoulder -26.524094 4.521807 37.439934
LeftArm -4.372507 -35.568175 -12.951933
LeftForeArm -5.125775 -0.000000 2.519425
LeftHand -2.459227 -0.000000 1.521752
LeftHandThumb1 -26.253704 0.000000 33.147579
Head -25.810129 11.633887 9.148492
652
root 6.784226 30.636013 -3.585302 19.786750 -16.097739 26.001474
RightUpLeg -34.223695 -48.035696 -25.226602
RightLeg -8.268809 -0.000000 0.000000
RightFoot 7.574136 -7.609745 13.543815
RightToeBase 11.126918 -0.000000 -0.000000
LeftUpLeg -22.886900 7.498800 -10.176055
LeftLeg 5.472174 -0.000000 -0.000000
LeftFoot -6.636147 7.506819 -26.586994
LeftToeBase 9.010792 -0.000000 -0.000000
Spine 9.168515 15.182913 37.155353
RightShoulder -14.373238 -3.276825 -20.751526
RightArm 12.939240 50.971438 54.397104
RightForeArm 23.217866 0.000000 15.153919
RightHand 14.600941 0.000000 7.422012
RightHandThumb1 -24.326973 -0.000000 -32.862282
LeftShoulder -26.545025 4.631706 37.360211
LeftArm -4.566442 -35.795626 -12.869292
LeftForeArm -4.993971 -0.000000 2.431639
LeftHand -2.649120 -0.000000 1.901873
LeftHandThumb1 -26.253704 0.000000 33.147579
Head -25.941211 11.628051 8.844929
653
root 6.779335 30.637511 -3.578002 19.654496 -16.026859 25.885924
RightUpLeg -34.035541 -48.060926 -25.184036
RightLeg -8.235312 -0.000000 0.000000
RightFoot 7.563530 -7.530149 13.478993
RightToeBase 11.095792 -0.000000 -0.000000
LeftUpLeg -22.750692 7.490770 -10.014459
LeftLeg 5.552677 -0.000000 -0.000000
LeftFoot -6.704679 7.472175 -26.675226
LeftToeBase 9.006883 -0.000000 -0.000000
Spine 9.225853 15.188502 36.993152
RightShoulder -14.500390 -3.355796 -20.783839
RightArm 12.954004 50.907061 54.456219
RightForeArm 23.169277 -0.000000 15.172877
RightHand 14.436936 -0.000000 7.501627
RightHandThumb1 -24.326973 -0.000000 -32.862282
LeftShoulder -26.611167 4.552628 37.332664
LeftArm -4.795694 -35.739311 -12.802173
LeftForeArm -4.890077 -0.000000 2.358795
LeftHand -2.829102 -0.000000 2.001453
LeftHandThumb1 -26.253704 0.000000 33.147579
Head -26.173029 11.503006 8.547692
654
root 6.775054 30.638887 -3.570479 19.513154 -15.952227 25.763958
RightUpLeg -33.787442 -48.044559 -25.202826
RightLeg -8.205323 -0.000000 0.000000
RightFoot 7.551469 -7.514833 13.520708
RightToeBase 11.048729 -0.000000 -0.000000
LeftUpLeg -22.615270 7.502686 -9.856177
LeftLeg 5.652879 -0.000000 -0.000000
LeftFoot -6.779976 7.414112 -26.680962
LeftToeBase 8.889578 -0.000000 -0.000000
Spine 9.297548 15.190777 36.818840
RightShoulder -14.661570 -3.411374 -20.815104
RightArm 13.046794 50.861661 54.530223
RightForeArm 23.080251 -0.000000 15.082630
RightHand 14.495340 0.000000 7.668046
RightHandThumb1 -24.326973 -0.000000 -32.862282
LeftShoulder -26.793716 4.632115 37.152074
LeftArm -4.714154 -35.717089 -12.836989
LeftForeArm -4.691256 -0.000000 2.155275
LeftHand -3.075429 -0.000000 2.254389
LeftHandThumb1 -26.253704 0.000000 33.147579
Head -26.424003 11.265404 8.258625
